<svg width="59" height="10" viewBox="0 0 59 10" fill="none" xmlns="http://www.w3.org/2000/svg">
<path d="M4.68404 0.278717C4.86744 -0.0929054 5.39737 -0.092906 5.58077 0.278717L6.77942 2.70745C6.85226 2.85502 6.99304 2.95731 7.15589 2.98097L9.83616 3.37044C10.2463 3.43003 10.41 3.93402 10.1133 4.22328L8.17381 6.11379C8.05597 6.22866 8.00219 6.39416 8.03001 6.55636L8.48785 9.22579C8.55791 9.63425 8.12919 9.94573 7.76238 9.75288L5.36508 8.49255C5.21941 8.41597 5.0454 8.41597 4.89973 8.49255L2.50243 9.75288C2.13562 9.94573 1.7069 9.63425 1.77695 9.2258L2.2348 6.55636C2.26262 6.39416 2.20884 6.22866 2.091 6.11379L0.151541 4.22329C-0.145218 3.93402 0.0185367 3.43003 0.428647 3.37044L3.10891 2.98097C3.27177 2.95731 3.41255 2.85502 3.48538 2.70745L4.68404 0.278717Z" fill="#FFC700"/>
<path d="M16.684 0.278717C16.8674 -0.0929054 17.3974 -0.092906 17.5808 0.278717L18.7794 2.70745C18.8523 2.85502 18.993 2.95731 19.1559 2.98097L21.8362 3.37044C22.2463 3.43003 22.41 3.93402 22.1133 4.22328L20.1738 6.11379C20.056 6.22866 20.0022 6.39416 20.03 6.55636L20.4879 9.22579C20.5579 9.63425 20.1292 9.94573 19.7624 9.75288L17.3651 8.49255C17.2194 8.41597 17.0454 8.41597 16.8997 8.49255L14.5024 9.75288C14.1356 9.94573 13.7069 9.63425 13.777 9.2258L14.2348 6.55636C14.2626 6.39416 14.2088 6.22866 14.091 6.11379L12.1515 4.22329C11.8548 3.93402 12.0185 3.43003 12.4286 3.37044L15.1089 2.98097C15.2718 2.95731 15.4126 2.85502 15.4854 2.70745L16.684 0.278717Z" fill="#FFC700"/>
<path d="M28.684 0.278717C28.8674 -0.0929054 29.3974 -0.092906 29.5808 0.278717L30.7794 2.70745C30.8523 2.85502 30.993 2.95731 31.1559 2.98097L33.8362 3.37044C34.2463 3.43003 34.41 3.93402 34.1133 4.22328L32.1738 6.11379C32.056 6.22866 32.0022 6.39416 32.03 6.55636L32.4879 9.22579C32.5579 9.63425 32.1292 9.94573 31.7624 9.75288L29.3651 8.49255C29.2194 8.41597 29.0454 8.41597 28.8997 8.49255L26.5024 9.75288C26.1356 9.94573 25.7069 9.63425 25.777 9.2258L26.2348 6.55636C26.2626 6.39416 26.2088 6.22866 26.091 6.11379L24.1515 4.22329C23.8548 3.93402 24.0185 3.43003 24.4286 3.37044L27.1089 2.98097C27.2718 2.95731 27.4126 2.85502 27.4854 2.70745L28.684 0.278717Z" fill="#FFC700"/>
<path d="M40.684 0.278717C40.8674 -0.0929054 41.3974 -0.092906 41.5808 0.278717L42.7794 2.70745C42.8523 2.85502 42.993 2.95731 43.1559 2.98097L45.8362 3.37044C46.2463 3.43003 46.41 3.93402 46.1133 4.22328L44.1738 6.11379C44.056 6.22866 44.0022 6.39416 44.03 6.55636L44.4879 9.22579C44.5579 9.63425 44.1292 9.94573 43.7624 9.75288L41.3651 8.49255C41.2194 8.41597 41.0454 8.41597 40.8997 8.49255L38.5024 9.75288C38.1356 9.94573 37.7069 9.63425 37.777 9.2258L38.2348 6.55636C38.2626 6.39416 38.2088 6.22866 38.091 6.11379L36.1515 4.22329C35.8548 3.93402 36.0185 3.43003 36.4286 3.37044L39.1089 2.98097C39.2718 2.95731 39.4126 2.85502 39.4854 2.70745L40.684 0.278717Z" fill="#FFC700"/>
<path d="M52.684 0.278717C52.8674 -0.0929054 53.3974 -0.092906 53.5808 0.278717L54.7794 2.70745C54.8523 2.85502 54.993 2.95731 55.1559 2.98097L57.8362 3.37044C58.2463 3.43003 58.41 3.93402 58.1133 4.22328L56.1738 6.11379C56.056 6.22866 56.0022 6.39416 56.03 6.55636L56.4879 9.22579C56.5579 9.63425 56.1292 9.94573 55.7624 9.75288L53.3651 8.49255C53.2194 8.41597 53.0454 8.41597 52.8997 8.49255L50.5024 9.75288C50.1356 9.94573 49.7069 9.63425 49.777 9.2258L50.2348 6.55636C50.2626 6.39416 50.2088 6.22866 50.091 6.11379L48.1515 4.22329C47.8548 3.93402 48.0185 3.43003 48.4286 3.37044L51.1089 2.98097C51.2718 2.95731 51.4126 2.85502 51.4854 2.70745L52.684 0.278717Z" fill="#FFC700"/>
</svg>
